# xmcd
#
# Track frame offsets: 
#        150
#        11414
#        17614
#        26989
#        39488
#        50482
#        62606
#        73388
#        86257
#        101618
#        113113
#        124903
#        139731
#        149239
#        174599
#        187131
#
# Disc length: 2661 seconds
#
# Revision: 4
# Processed by: cddbd v1.5.2PL0 Copyright (c) Steve Scherf et al.
# Submitted via: ExactAudioCopyFreeDBPlugin 1.0
#
DISCID=eb0a6310
DTITLE=Various Artist - Giants Of Blues CD1
DYEAR=2002
DGENRE=Blues
TTITLE0=John Lee Hooker - Boom Boom (1961)
TTITLE1=Eric Clapton - Choker (1965)
TTITLE2=Canned Heat - Rollin' And Tumblin'
TTITLE3=Elmore James - Dust In My Broom (1959)
TTITLE4=BB King - Catfish Blues
TTITLE5=Bo Diddley - I'm A Man (1986)
TTITLE6=Fats Domino - Walking To New Orleans (1989)
TTITLE7=Muddy Waters - Got My Mojo Working
TTITLE8=Albert Collins - Frosty
TTITLE9=Lightnin' Hopkins - Tell Me Pretty Mama
TTITLE10=Eric Clapton - Got To Hurry (1964)
TTITLE11=BB King - BB Boogie (1950)
TTITLE12=Canned Heat - Big Road Blues (1969)
TTITLE13=Howlin' Wolf - Little Red Rooster
TTITLE14=Muddy Waters - Mean Mistreater
TTITLE15=John Lee Hooker - Hobo Blues (1959)
EXTD=
EXTT0=
EXTT1=
EXTT2=
EXTT3=
EXTT4=
EXTT5=
EXTT6=
EXTT7=
EXTT8=
EXTT9=
EXTT10=
EXTT11=
EXTT12=
EXTT13=
EXTT14=
EXTT15=
PLAYORDER=
